<svg width="24" height="24" viewBox="0 0 24 24" fill="none" xmlns="http://www.w3.org/2000/svg">
<path fill-rule="evenodd" clip-rule="evenodd" d="M14.3678 5.36835C14.3678 4.0657 13.302 2.99989 11.9993 2.99989C10.6967 2.99989 9.63086 4.0657 9.63086 5.36835C9.63086 6.67101 10.6967 7.73681 11.9993 7.73681C13.302 7.73681 14.3678 6.67101 14.3678 5.36835ZM14.3678 18.6317C14.3678 17.329 13.302 16.2632 11.9993 16.2632C10.6967 16.2632 9.63086 17.329 9.63086 18.6317C9.63086 19.9343 10.6967 21.0001 11.9993 21.0001C13.302 21.0001 14.3678 19.9343 14.3678 18.6317ZM11.9993 9.63185C13.302 9.63185 14.3678 10.6977 14.3678 12.0003C14.3678 13.303 13.302 14.3688 11.9993 14.3688C10.6967 14.3688 9.63086 13.303 9.63086 12.0003C9.63086 10.6977 10.6967 9.63185 11.9993 9.63185Z" fill="#fff"/>
</svg>
