<svg xmlns="http://www.w3.org/2000/svg" width="24" height="26" viewBox="0 0 24 26" fill="none" class="injected-svg" data-src="/static/media/session-streak.7334d68c.svg" xmlns:xlink="http://www.w3.org/1999/xlink">
<path d="M0 7.51342C0 5.30428 1.79086 3.51343 4 3.51343H7.57895L12 6.47218L16.4211 3.51343H20C22.2091 3.51343 24 5.30429 24 7.51343V21.9999C24 24.2091 22.2091 25.9999 20 25.9999H4C1.79086 25.9999 0 24.2091 0 21.9999V7.51342Z" fill="#F3A952"></path>
<path d="M7.27344 14.1856L11.058 17.8231L17.4553 11.6904" stroke="#5B4230" stroke-width="3" stroke-linecap="round" stroke-linejoin="round"></path>
<path fill-rule="evenodd" clip-rule="evenodd" d="M11.7534 0C9.45931 0 7.59961 1.8597 7.59961 4.15375C7.59961 6.44781 9.45931 8.30751 11.7534 8.30751H12.3125C14.6066 8.30751 16.4663 6.44781 16.4663 4.15375C16.4663 1.8597 14.6066 0 12.3125 0H11.7534ZM11.913 2.37369C10.9298 2.37369 10.1328 3.1707 10.1328 4.15387C10.1328 5.13704 10.9298 5.93405 11.913 5.93405H12.1526C13.1358 5.93405 13.9328 5.13704 13.9328 4.15387C13.9328 3.1707 13.1358 2.37369 12.1526 2.37369H11.913Z" fill="#F3A952"></path>
</svg>