<svg fill="none" height="30" viewBox="0 0 30 30" width="30" xmlns="http://www.w3.org/2000/svg"><path clip-rule="evenodd" d="m15 7c-.5563 0-1.1085.09806-1.6256.28989-.5172.19185-.9914.47461-1.3941.83523-.4028.36075-.7267.79301-.9493 1.2743-.1346.29093-.2302.59559-.2848.90728h-3.13082c-.33986 0-.61538.2776-.61538.62 0 .3425.27552.62.61538.62h1.02565v3.5975c0 1.3502.19007 2.6935.56453 3.9899.55999 1.9386 2.17224 3.3831 4.14874 3.7169l.1294.0219c1.0039.1695 2.0287.1695 3.0326 0l.1294-.0219c1.9765-.3338 3.5887-1.7782 4.1487-3.7169.3745-1.2964.5646-2.6397.5646-3.9899v-3.5975h1.0256c.3399 0 .6154-.2775.6154-.62 0-.3424-.2755-.62-.6154-.62h-3.1308c-.0546-.31169-.1502-.61635-.2848-.90728-.2226-.48129-.5465-.91355-.9493-1.27429-.4027-.36063-.8769-.64339-1.3941-.83524-.5171-.19183-1.0693-.28989-1.6256-.28989zm-1.2004 1.45355c.3788-.14052.7869-.21353 1.2004-.21353s.8216.07301 1.2004.21353c.3787.14051.7186.34489 1.0016.59838.2829.25337.5029.55017.6515.87126.0578.12521.1046.25341.1401.38351h-5.9872c.0355-.1301.0823-.2583.1401-.38351.1486-.32109.3686-.61789.6515-.87126.283-.25349.6229-.45787 1.0016-.59838zm-.4406 5.98655c.3398 0 .6154.2776.6154.62v3.3068c0 .3424-.2756.62-.6154.62-.3399 0-.6154-.2776-.6154-.62v-3.3068c0-.3424.2755-.62.6154-.62zm3.282 0c.3399 0 .6154.2776.6154.62v3.3068c0 .3424-.2755.62-.6154.62-.3398 0-.6154-.2776-.6154-.62v-3.3068c0-.3424.2756-.62.6154-.62z" fill="#fff" fill-rule="evenodd"/></svg>