<svg xmlns="http://www.w3.org/2000/svg" fill="none" height="38" viewBox="0 0 38 38" width="38" class="injected-svg" data-src="/static/media/time.0c7b129c.svg" xmlns:xlink="http://www.w3.org/1999/xlink"><path d="m19 0c-3.7578 0-7.4313 1.11433-10.55583 3.20208-3.12453 2.08774-5.55981 5.05514-6.99787 8.52692-1.43806755 3.4718-1.814331 7.2921-1.081212 10.9777.733122 3.6856 2.542692 7.0711 5.199892 9.7283s6.04272 4.4668 9.72832 5.1999 7.5059.3569 10.9777-1.0812 6.4392-3.8733 8.5269-6.9979c2.0878-3.1245 3.2021-6.798 3.2021-10.5558-.0057-5.0374-2.0093-9.86677-5.5713-13.42872-3.5619-3.56195-8.3913-5.56556546-13.4287-5.57128zm6.1063 25.1069c-.324.3239-.7633.5058-1.2213.5058-.4581 0-.8974-.1819-1.2213-.5058l-4.8844-4.8852c-.3206-.3228-.5019-.7585-.5048-1.2134l-.0018-.0083v-6.9091c0-.4581.182-.8974.5059-1.2214.324-.3239.7633-.5059 1.2214-.5059s.8974.182 1.2214.5059c.3239.324.5059.7633.5059 1.2214v6.194l4.379 4.3797c.3238.3239.5057.7631.5057 1.2212 0 .458-.1819.8972-.5057 1.2211z" fill="#f3a952"></path></svg>