<svg width="13" height="22" viewBox="0 0 13 22" fill="none" xmlns="http://www.w3.org/2000/svg">
<path d="M12.5628 0.483352C12.3832 0.175648 12.0507 0 11.6519 0H6.75631C6.17189 0 5.56473 0.381374 5.31242 0.907405L0.120412 11.6906C-0.0491235 12.0423 -0.0386682 12.4154 0.145665 12.7113C0.331339 13.0098 0.659954 13.1837 1.04959 13.192L4.89185 13.2404L2.11039 20.1931C2.04197 20.3665 1.89812 20.73 2.15441 21.1035C2.26641 21.2674 2.45863 21.3677 2.65647 21.3677H2.70135C3.07661 21.3677 3.30276 21.0831 3.41128 20.9458L12.3989 9.66008C12.7824 9.17935 12.6242 8.7479 12.5662 8.62239C12.5061 8.50212 12.2646 8.1081 11.6523 8.1081H8.79239L12.5348 1.51408C12.731 1.16627 12.7419 0.789717 12.5628 0.483352Z" fill="#F3A952"/>
</svg>
