<svg xmlns="http://www.w3.org/2000/svg" viewBox="0 0 264 220" width="264" height="220" preserveAspectRatio="xMidYMid meet" style="width: 100%; height: 100%; transform: translate3d(0px, 0px, 0px); content-visibility: visible;"><defs><clipPath id="__lottie_element_44"><rect width="264" height="220" x="0" y="0"></rect></clipPath><mask id="__lottie_element_45" mask-type="alpha"><g transform="matrix(1,0,0,1,132,110)" opacity="1" style="display: block;"><g opacity="1" transform="matrix(1,0,0,1,0,0)"><path stroke-linecap="round" stroke-linejoin="miter" fill-opacity="0" stroke-miterlimit="4" stroke="rgb(8,12,36)" stroke-opacity="1" stroke-width="30" d=" M104.5,59 C104.5,59 104.5,59 104.5,59"></path></g><g opacity="1" transform="matrix(1,0,0,1,0,0)"><path stroke-linecap="round" stroke-linejoin="miter" fill-opacity="0" stroke-miterlimit="4" stroke="rgb(8,12,36)" stroke-opacity="1" stroke-width="30" d=" M-105,59.375 C-105,59.375 -105,59.4379997253418 -105,59.4379997253418"></path></g></g></mask></defs><g clip-path="url(#__lottie_element_44)"><g transform="matrix(1,0,0,1,132,110)" opacity="1" style="display: block;"><g opacity="1" transform="matrix(1,0,0,1,0,0)"><path fill="rgb(243,169,82)" fill-opacity="1" d=" M15.074999809265137,44.36899948120117 C32.41699981689453,32.39400100708008 53.40299987792969,25.358999252319336 76.0459976196289,25.358999252319336 C76.0459976196289,25.358999252319336 76.0459976196289,-85.7229995727539 76.0459976196289,-85.7229995727539 C76.0459976196289,-90.9729995727539 71.77999877929688,-95.27300262451172 66.5510025024414,-94.81500244140625 C40.64799880981445,-92.5459976196289 17.368000030517578,-81.08100128173828 0,-63.70199966430664 C-17.368000030517578,-81.08100128173828 -40.650001525878906,-92.5459976196289 -66.552001953125,-94.81500244140625 C-71.78199768066406,-95.27300262451172 -76.0479965209961,-90.9729995727539 -76.0479965209961,-85.7229995727539 C-76.0479965209961,-85.7229995727539 -76.0479965209961,25.358999252319336 -76.0479965209961,25.358999252319336 C-53.395999908447266,25.358999252319336 -32.41600036621094,32.39400100708008 -15.074000358581543,44.36899948120117 C-15.074000358581543,44.36899948120117 -114.16000366210938,44.625 -114.16000366210938,44.625 C-114.16000366210938,44.625 -114.07099914550781,66.37100219726562 -114.07099914550781,66.37100219726562 C-114.07099914550781,71.60700225830078 -109.79100036621094,75.87899780273438 -104.56600189208984,75.87899780273438 C-104.56600189208984,75.87899780273438 -19.01300048828125,75.87899780273438 -19.01300048828125,75.87899780273438 C-19.01300048828125,86.38800048828125 -10.5,94.88800048828125 0,94.88800048828125 C10.5,94.88800048828125 19.01300048828125,86.38800048828125 19.01300048828125,75.87899780273438 C19.01300048828125,75.87899780273438 104.56700134277344,75.87899780273438 104.56700134277344,75.87899780273438 C109.79100036621094,75.87899780273438 114.07099914550781,71.60700225830078 114.07099914550781,66.37100219726562 C114.07099914550781,66.37100219726562 114.07099914550781,44.5 114.07099914550781,44.5 C114.07099914550781,44.5 15.074999809265137,44.36899948120117 15.074999809265137,44.36899948120117z"></path></g></g><g mask="url(#__lottie_element_45)" style="display: block;"><g transform="matrix(1,0,0,1,132,110)" opacity="1"><g opacity="1" transform="matrix(1,0,0,1,0,0)"><path fill="rgb(243,169,82)" fill-opacity="1" d=" M104.56700134277344,-57.20600128173828 C104.56700134277344,-57.20600128173828 104.56700134277344,-57.20600128173828 104.56700134277344,-57.20600128173828 C99.31600189208984,-57.20600128173828 95.05899810791016,-52.94900131225586 95.05899810791016,-47.698001861572266 C95.05899810791016,-47.698001861572266 95.05899810791016,44.36899948120117 95.05899810791016,44.36899948120117 C95.05899810791016,44.36899948120117 15.074999809265137,44.36899948120117 15.074999809265137,44.36899948120117 C32.41699981689453,32.39400100708008 53.40299987792969,25.358999252319336 76.0459976196289,25.358999252319336 C76.0459976196289,25.358999252319336 76.0459976196289,-85.7229995727539 76.0459976196289,-85.7229995727539 C76.0459976196289,-90.9729995727539 71.77999877929688,-95.27300262451172 66.5510025024414,-94.81500244140625 C40.64799880981445,-92.5459976196289 17.368000030517578,-81.08100128173828 0,-63.70199966430664 C-17.368000030517578,-81.08100128173828 -40.650001525878906,-92.5459976196289 -66.552001953125,-94.81500244140625 C-71.78199768066406,-95.27300262451172 -76.0479965209961,-90.9729995727539 -76.0479965209961,-85.7229995727539 C-76.0479965209961,-85.7229995727539 -76.0479965209961,25.358999252319336 -76.0479965209961,25.358999252319336 C-53.395999908447266,25.358999252319336 -32.41600036621094,32.39400100708008 -15.074000358581543,44.36899948120117 C-15.074000358581543,44.36899948120117 -95.05799865722656,44.36899948120117 -95.05799865722656,44.36899948120117 C-95.05799865722656,44.36899948120117 -95.05799865722656,-47.698001861572266 -95.05799865722656,-47.698001861572266 C-95.05799865722656,-52.94900131225586 -99.31500244140625,-57.20600128173828 -104.56600189208984,-57.20600128173828 C-104.56600189208984,-57.20600128173828 -104.56600189208984,-57.20600128173828 -104.56600189208984,-57.20600128173828 C-109.79100036621094,-57.20600128173828 -114.07099914550781,-52.91699981689453 -114.07099914550781,-47.70100021362305 C-114.07099914550781,-47.70100021362305 -114.07099914550781,66.37100219726562 -114.07099914550781,66.37100219726562 C-114.07099914550781,71.60700225830078 -109.79100036621094,75.87899780273438 -104.56600189208984,75.87899780273438 C-104.56600189208984,75.87899780273438 -19.01300048828125,75.87899780273438 -19.01300048828125,75.87899780273438 C-19.01300048828125,86.38800048828125 -10.5,94.88800048828125 0,94.88800048828125 C10.5,94.88800048828125 19.01300048828125,86.38800048828125 19.01300048828125,75.87899780273438 C19.01300048828125,75.87899780273438 104.56700134277344,75.87899780273438 104.56700134277344,75.87899780273438 C109.79100036621094,75.87899780273438 114.07099914550781,71.60700225830078 114.07099914550781,66.37100219726562 C114.07099914550781,66.37100219726562 114.07099914550781,-47.70100021362305 114.07099914550781,-47.70100021362305 C114.07099914550781,-52.91699981689453 109.79100036621094,-57.20600128173828 104.56700134277344,-57.20600128173828z"></path></g></g></g></g></svg>