<svg fill="none" height="20" viewBox="0 0 20 20" width="20" xmlns="http://www.w3.org/2000/svg"><g fill="#fff"><path d="m13.7143.857143c0-.473387.3837-.857143.8571-.857143 2.9981 0 5.4286 2.43045 5.4286 5.42857 0 .47339-.3838.85714-.8571.85714-.4734 0-.8572-.38375-.8572-.85714 0-2.05134-1.6629-3.71428-3.7143-3.71428-.4734 0-.8571-.38376-.8571-.857147z"/><path d="m1.71429 14.5714c0-.4734-.38376-.8571-.857147-.8571s-.857143.3837-.857143.8571c0 2.9981 2.43045 5.4286 5.42857 5.4286.47339 0 .85714-.3838.85714-.8571 0-.4734-.38375-.8572-.85714-.8572-2.05134 0-3.71428-1.6629-3.71428-3.7143z"/><path d="m0 5.42857c0-2.99812 2.43045-5.42857 5.42857-5.42857.47339 0 .85714.383756.85714.857143s-.38375.857147-.85714.857147c-2.05134 0-3.71428 1.66294-3.71428 3.71428 0 .47339-.38376.85714-.857147.85714s-.857143-.38375-.857143-.85714z"/><path d="m20 14.5714c0-.4734-.3838-.8571-.8571-.8571-.4734 0-.8572.3837-.8572.8571 0 2.0514-1.6629 3.7143-3.7143 3.7143-.4734 0-.8571.3838-.8571.8572 0 .4733.3837.8571.8571.8571 2.9981 0 5.4286-2.4305 5.4286-5.4286z"/></g><path d="m2.5 2.5 5.5 4.5" stroke="#fff" stroke-linecap="round" stroke-linejoin="round" stroke-width="1.5"/><path d="m17.5 2.5-5.5 4.5" stroke="#fff" stroke-linecap="round" stroke-linejoin="round" stroke-width="1.5"/><path d="m2.5 17.5 5.5-4.5" stroke="#fff" stroke-linecap="round" stroke-linejoin="round" stroke-width="1.5"/><path d="m17.5 17.5-5.5-4.5" stroke="#fff" stroke-linecap="round" stroke-linejoin="round" stroke-width="1.5"/></svg>