<svg width="50" height="50" viewBox="0 0 50 50" fill="none" xmlns="http://www.w3.org/2000/svg">
<rect opacity="0.1" x="-0.5" y="0.5" width="49" height="49" rx="24.5" transform="matrix(-1 0 0 1 49 0)" stroke="white"/>
<path d="M25.5 36C24.304 36 23.3333 35.0592 23.3333 33.9C23.3333 32.7408 24.304 31.8 25.5 31.8C26.6982 31.8 27.6667 32.7408 27.6667 33.9C27.6667 35.0592 26.6982 36 25.5 36ZM28.4662 26.7348C28.2083 26.8923 27.8595 27.1065 27.6407 27.2787C27.7252 28.3119 27.034 29.3304 25.9723 29.5656C25.7968 29.6055 25.6192 29.6223 25.448 29.6223C24.4795 29.6223 23.615 29.0259 23.3875 28.0662C23.2597 27.5265 23.1123 26.4912 23.5565 25.6197C24.1848 24.3849 25.2768 23.7171 26.1565 23.1795C27.4002 22.4214 27.6667 22.1757 27.6667 21.3C27.6667 20.1429 26.6938 19.2 25.5 19.2C24.3062 19.2 23.3333 20.1429 23.3333 21.3C23.3333 22.4592 22.3627 23.4 21.1667 23.4C19.9707 23.4 19 22.4592 19 21.3C19 17.8266 21.9163 15 25.5 15C29.0837 15 32 17.8266 32 21.3C32 24.576 29.7878 25.9284 28.4662 26.7348Z" fill="white"/>
</svg>
