<svg width="25" height="25" viewBox="0 0 25 25" fill="none" xmlns="http://www.w3.org/2000/svg">
<path d="M0.87998 10.5756C-0.0137836 10.5756 -0.234323 11.3084 0.253185 12.0046L3.00412 15.9741C3.37556 16.5115 3.96753 16.4992 4.32736 15.9741L7.07829 11.9924C7.54258 11.3084 7.32205 10.5756 6.4515 10.5756H4.8729C5.87113 6.49619 9.37654 3.51604 13.59 3.51604C18.5812 3.51604 22.5973 7.72978 22.5973 12.9817C22.5973 18.2458 18.5812 22.484 13.59 22.4595C10.7114 22.4595 8.21581 21.0672 6.56757 18.8443C6.08006 18.2824 5.38362 18.0992 4.81486 18.5512C4.29253 18.9664 4.21128 19.7603 4.73361 20.4199C6.74168 23.1435 10.0846 24.9878 13.59 24.9878C19.8347 24.9878 25 19.5527 25 12.9817C25 6.41069 19.8347 0.987793 13.59 0.987793C8.12295 0.987793 3.49163 5.12825 2.41215 10.5756H0.87998ZM13.1837 6.31298C12.6266 6.31298 12.1855 6.77711 12.1855 7.35115V13.5557C12.1855 13.8489 12.2784 14.1054 12.4757 14.3741L15.0641 17.9649C15.4588 18.5145 16.0508 18.6122 16.5383 18.2458C17.0026 17.9038 17.0374 17.2565 16.6775 16.7557L14.1704 13.2015V7.35115C14.1704 6.77711 13.7293 6.31298 13.1837 6.31298Z" fill="#F3A952"/>
</svg>
