<svg width="21" height="21" viewBox="0 0 21 21" fill="none" xmlns="http://www.w3.org/2000/svg">
<path d="M15.75 0H5.25C2.36276 0 0 2.36173 0 5.25V15.75C0 18.6372 2.36276 21 5.25 21H15.75C18.6372 21 21 18.6372 21 15.75V5.25C21 2.36173 18.6372 0 15.75 0ZM10.5 14.8748C8.08341 14.8748 6.12491 12.9155 6.12491 10.5C6.12491 8.08341 8.08341 6.12491 10.5 6.12491C12.9155 6.12491 14.8751 8.08341 14.8751 10.5C14.8751 12.9155 12.9155 14.8748 10.5 14.8748ZM16.1876 6.12491C15.462 6.12491 14.8751 5.53716 14.8751 4.81241C14.8751 4.08767 15.462 3.49991 16.1876 3.49991C16.9132 3.49991 17.5001 4.08767 17.5001 4.81241C17.5001 5.53716 16.9132 6.12491 16.1876 6.12491Z" fill="#C5395C"/>
</svg>
