<svg width="22" height="21" viewBox="0 0 22 21" fill="none" xmlns="http://www.w3.org/2000/svg">
<path fill-rule="evenodd" clip-rule="evenodd" d="M6.86696 0.515223C3.71223 1.21956 1.22511 3.66314 0.446244 6.82354C-0.148748 9.23784 -0.148748 11.7622 0.446244 14.1765C1.22511 17.3369 3.71223 19.7804 6.86696 20.4848L7.3925 20.6021C9.76869 21.1326 12.2313 21.1326 14.6075 20.6021L15.133 20.4848C18.2878 19.7804 20.7749 17.3369 21.5538 14.1765C22.1487 11.7622 22.1487 9.23784 21.5538 6.82355C20.7749 3.66314 18.2878 1.21956 15.133 0.515221L14.6075 0.39789C12.2313 -0.13263 9.7687 -0.13263 7.3925 0.397889L6.86696 0.515223ZM6.9875 7.94863C6.64415 7.70148 6.167 7.78162 5.92176 8.12764C5.67651 8.47367 5.75604 8.95453 6.09938 9.20169L9.07578 11.3443C10.2269 12.1729 11.7732 12.1729 12.9243 11.3443L15.9007 9.20169C16.244 8.95453 16.3235 8.47367 16.0783 8.12764C15.8331 7.78162 15.3559 7.70148 15.0126 7.94863L12.0362 10.0912C11.4163 10.5374 10.5837 10.5374 9.96389 10.0912L6.9875 7.94863Z" fill="#E19A47"/>
</svg>
