<svg width="70" height="59" viewBox="0 0 70 59" fill="none" xmlns="http://www.w3.org/2000/svg">
<path d="M57.8341 42.6258L53.3485 38.0265C52.0679 36.7503 52.0655 34.6139 53.3442 33.334C53.9839 32.6925 54.8249 32.3401 55.6647 32.3401C56.502 32.3401 57.34 32.6452 57.9796 33.2824L68.0731 43.3452C68.6889 43.9585 69.0357 44.7897 69.0357 45.659C69.0357 46.5288 68.6889 47.36 68.0731 47.9745L57.9796 58.0429C56.6991 59.3216 54.6229 59.3179 53.3442 58.0386C52.0655 56.7586 52.0679 54.8095 53.3485 53.532L57.8341 49.182H53.6063C47.5055 49.182 39.7251 41.4152 30.7145 32.7097C23.3129 25.5573 14.0985 16.4055 9.54899 16.4055H3.27815C1.4678 16.4055 0.000613841 14.9371 0.000613841 13.1279C0.000613841 11.3188 1.46841 9.84979 3.27815 9.84979H9.54899C16.7493 9.84979 25.747 18.7941 35.2714 27.9962C41.5533 34.0639 50.1575 42.6258 53.6063 42.6258H57.8341ZM68.0725 15.6946C68.6883 15.0807 69.0351 14.2434 69.0351 13.3723C69.0351 12.5048 68.6883 11.6657 68.0725 11.0524L57.979 0.974237C57.34 0.33641 56.5014 0 55.6641 0C54.8237 0 53.9832 0.291595 53.3436 0.933106C52.0648 2.21183 52.0673 4.22169 53.3479 5.50041L57.8335 9.85041H53.6057C48.8555 9.85041 44.2734 13.3864 37.4789 19.7395C36.1572 20.9759 36.0879 23.1435 37.3248 24.4633C38.5612 25.7856 40.6349 25.7912 41.9572 24.5554C46.4165 20.3871 50.9126 16.4055 53.6057 16.4055H57.8335L53.3479 21.0053C52.0673 22.2828 52.0648 24.4799 53.3436 25.7605C54.6223 27.0423 56.6985 27.046 57.979 25.7666L68.0725 15.6946ZM0 45.9051C0 47.7142 1.4678 49.1827 3.27753 49.1827H9.54837C14.8849 49.1827 20.249 45.1961 26.6604 39.3765C27.9999 38.161 28.0988 35.9774 26.8833 34.6373C26.2368 33.9276 25.3467 33.5943 24.4547 33.5943C23.669 33.5943 22.8801 33.9405 22.2527 34.5102C18.152 38.2316 13.0033 42.6258 9.54899 42.6258H3.27815C1.4678 42.6258 0 44.0948 0 45.9051Z" fill="#24242F"/>
</svg>
