<svg width="14" height="14" viewBox="0 0 14 14" fill="none" xmlns="http://www.w3.org/2000/svg">
<path d="M10.2793 9.33398C9.15365 9.33398 8.18066 9.11979 7.36035 8.69141C6.5446 8.26302 5.91341 7.65462 5.4668 6.86621C5.02018 6.07324 4.79688 5.12988 4.79688 4.03613C4.79688 3.57585 4.83105 3.14974 4.89941 2.75781C4.97233 2.36589 5.06803 2.05599 5.18652 1.82812C5.24577 1.71875 5.28678 1.62533 5.30957 1.54785C5.33236 1.46582 5.34375 1.38379 5.34375 1.30176C5.34375 1.15137 5.28678 1.01693 5.17285 0.898438C5.06348 0.775391 4.91992 0.713867 4.74219 0.713867C4.70117 0.713867 4.64193 0.722982 4.56445 0.741211C4.48698 0.754883 4.39583 0.782227 4.29102 0.823242C3.47526 1.15592 2.75521 1.639 2.13086 2.27246C1.51107 2.90592 1.02572 3.63965 0.674805 4.47363C0.328451 5.30306 0.155273 6.1735 0.155273 7.08496C0.155273 8.07389 0.323893 8.98307 0.661133 9.8125C0.998372 10.6374 1.47233 11.3574 2.08301 11.9727C2.69368 12.5833 3.41374 13.0573 4.24316 13.3945C5.07259 13.7318 5.97949 13.9004 6.96387 13.9004C7.89811 13.9004 8.76855 13.7409 9.5752 13.4219C10.3818 13.1029 11.0905 12.6471 11.7012 12.0547C12.3164 11.4668 12.8018 10.765 13.1572 9.94922C13.2074 9.8444 13.2393 9.7487 13.2529 9.66211C13.2712 9.57552 13.2803 9.50716 13.2803 9.45703C13.2803 9.2793 13.2256 9.1403 13.1162 9.04004C13.0068 8.93522 12.8792 8.88281 12.7334 8.88281C12.6605 8.88281 12.5876 8.89193 12.5146 8.91016C12.4417 8.92383 12.3529 8.95573 12.248 9.00586C12.0931 9.06966 11.9062 9.12663 11.6875 9.17676C11.4733 9.22689 11.2454 9.26562 11.0039 9.29297C10.7669 9.32031 10.5254 9.33398 10.2793 9.33398ZM1.50195 7.05078C1.50195 6.46289 1.5931 5.88867 1.77539 5.32812C1.96224 4.76758 2.22656 4.25033 2.56836 3.77637C2.91471 3.30241 3.32487 2.90137 3.79883 2.57324C3.7168 2.81934 3.65527 3.0791 3.61426 3.35254C3.57324 3.62598 3.55273 3.91081 3.55273 4.20703C3.55273 5.52865 3.8125 6.66341 4.33203 7.61133C4.85156 8.55924 5.5944 9.28841 6.56055 9.79883C7.53125 10.3047 8.69108 10.5576 10.04 10.5576C10.2952 10.5576 10.5345 10.5417 10.7578 10.5098C10.9857 10.4779 11.2021 10.4277 11.4072 10.3594C11.1019 10.8151 10.7191 11.2093 10.2588 11.542C9.80306 11.8701 9.2972 12.1208 8.74121 12.2939C8.18522 12.4717 7.60417 12.5605 6.99805 12.5605C6.20508 12.5605 5.47363 12.4238 4.80371 12.1504C4.13379 11.877 3.55273 11.4941 3.06055 11.002C2.56836 10.5052 2.18555 9.92188 1.91211 9.25195C1.63867 8.58203 1.50195 7.84831 1.50195 7.05078Z" fill="white"/>
</svg>
