<svg width="18" height="18" viewBox="0 0 18 18" fill="none" xmlns="http://www.w3.org/2000/svg">
<path d="M16.4341 2.90708L17.0757 2.2479C17.4009 1.90513 17.4272 1.42173 17.1021 1.09653L16.8735 0.868019C16.5835 0.569191 16.0913 0.621925 15.7661 0.938331L15.1157 1.57993L16.4341 2.90708ZM6.63428 11.7049L8.36572 10.9842L15.8364 3.51353L14.5093 2.19517L7.03857 9.66587L6.2915 11.3446C6.20361 11.5555 6.43213 11.784 6.63428 11.7049ZM3.44385 17.3299H13.103C14.7378 17.3299 15.687 16.3719 15.687 14.5702V5.82505L13.9292 7.58286V14.4032C13.9292 15.1854 13.5161 15.5721 12.9712 15.5721H3.57568C2.82861 15.5721 2.42432 15.1854 2.42432 14.4032V5.22739C2.42432 4.44517 2.82861 4.05845 3.57568 4.05845H10.4751L12.2329 2.30064H3.44385C1.62451 2.30064 0.666504 3.24986 0.666504 5.05161V14.5702C0.666504 16.3807 1.62451 17.3299 3.44385 17.3299Z" fill="#F3A952"/>
</svg>
