<svg width="15" height="15" viewBox="0 0 15 15" fill="none" xmlns="http://www.w3.org/2000/svg">
<path d="M7.43555 10.7764C7.90495 10.7764 8.34701 10.6875 8.76172 10.5098C9.18099 10.3275 9.54785 10.0791 9.8623 9.76465C10.1768 9.44564 10.4229 9.07878 10.6006 8.66406C10.7829 8.24479 10.874 7.80046 10.874 7.33105C10.874 6.86165 10.7829 6.4196 10.6006 6.00488C10.4229 5.58561 10.1768 5.21875 9.8623 4.9043C9.54785 4.58529 9.18099 4.33691 8.76172 4.15918C8.34701 3.97689 7.90495 3.88574 7.43555 3.88574C6.96615 3.88574 6.52409 3.97689 6.10938 4.15918C5.69466 4.33691 5.3278 4.58529 5.00879 4.9043C4.68978 5.21875 4.44141 5.58561 4.26367 6.00488C4.08594 6.4196 3.99707 6.86165 3.99707 7.33105C3.99707 7.80046 4.08594 8.24479 4.26367 8.66406C4.44141 9.07878 4.68978 9.44564 5.00879 9.76465C5.3278 10.0791 5.69466 10.3275 6.10938 10.5098C6.52409 10.6875 6.96615 10.7764 7.43555 10.7764ZM7.43555 9.47754C7.04362 9.47754 6.68359 9.38184 6.35547 9.19043C6.0319 8.99447 5.77214 8.7347 5.57617 8.41113C5.38477 8.08301 5.28906 7.72298 5.28906 7.33105C5.28906 6.93913 5.38477 6.58138 5.57617 6.25781C5.77214 5.92969 6.0319 5.66764 6.35547 5.47168C6.68359 5.27572 7.04362 5.17773 7.43555 5.17773C7.82747 5.17773 8.18522 5.27572 8.50879 5.47168C8.83691 5.66764 9.09896 5.92969 9.29492 6.25781C9.49089 6.58138 9.58887 6.93913 9.58887 7.33105C9.58887 7.72298 9.49089 8.08301 9.29492 8.41113C9.09896 8.7347 8.83691 8.99447 8.50879 9.19043C8.18522 9.38184 7.82747 9.47754 7.43555 9.47754ZM8.12598 0.727539C8.12598 0.54069 8.05762 0.378906 7.9209 0.242188C7.78418 0.105469 7.6224 0.0371094 7.43555 0.0371094C7.25326 0.0371094 7.09375 0.105469 6.95703 0.242188C6.82031 0.378906 6.75195 0.54069 6.75195 0.727539V2.02637C6.75195 2.21322 6.82031 2.375 6.95703 2.51172C7.09375 2.64388 7.25326 2.70996 7.43555 2.70996C7.6224 2.70996 7.78418 2.64388 7.9209 2.51172C8.05762 2.375 8.12598 2.21322 8.12598 2.02637V0.727539ZM10.6963 3.11328C10.5641 3.24089 10.498 3.40267 10.498 3.59863C10.5026 3.79004 10.5687 3.95182 10.6963 4.08398C10.8285 4.21159 10.9902 4.27539 11.1816 4.27539C11.373 4.27539 11.5371 4.20931 11.6738 4.07715L12.5967 3.14746C12.7243 3.01986 12.7858 2.86035 12.7812 2.66895C12.7812 2.47298 12.7174 2.30892 12.5898 2.17676C12.4577 2.04915 12.2959 1.98763 12.1045 1.99219C11.9131 1.99219 11.7536 2.05599 11.626 2.18359L10.6963 3.11328ZM14.0322 8.01465C14.2191 8.01465 14.3809 7.94629 14.5176 7.80957C14.6543 7.67285 14.7227 7.51335 14.7227 7.33105C14.7227 7.14421 14.6543 6.98242 14.5176 6.8457C14.3809 6.70898 14.2191 6.64062 14.0322 6.64062H12.7402C12.5534 6.64062 12.3916 6.70898 12.2549 6.8457C12.1182 6.98242 12.0498 7.14421 12.0498 7.33105C12.0498 7.51335 12.1182 7.67285 12.2549 7.80957C12.3916 7.94629 12.5534 8.01465 12.7402 8.01465H14.0322ZM11.667 10.585C11.5348 10.4528 11.373 10.389 11.1816 10.3936C10.9902 10.3936 10.8285 10.4596 10.6963 10.5918C10.5641 10.724 10.498 10.8857 10.498 11.0771C10.5026 11.264 10.5687 11.4235 10.6963 11.5557L11.6328 12.4854C11.7604 12.613 11.9199 12.6745 12.1113 12.6699C12.3027 12.6699 12.4645 12.6038 12.5967 12.4717C12.7243 12.3441 12.7881 12.1846 12.7881 11.9932C12.7881 11.8018 12.722 11.64 12.5898 11.5078L11.667 10.585ZM8.12598 12.6357C8.12598 12.4489 8.05762 12.2871 7.9209 12.1504C7.78418 12.0182 7.6224 11.9521 7.43555 11.9521C7.25326 11.9521 7.09375 12.0182 6.95703 12.1504C6.82031 12.2871 6.75195 12.4489 6.75195 12.6357V13.9346C6.75195 14.1214 6.82031 14.2832 6.95703 14.4199C7.09375 14.5566 7.25326 14.625 7.43555 14.625C7.6224 14.625 7.78418 14.5566 7.9209 14.4199C8.05762 14.2832 8.12598 14.1214 8.12598 13.9346V12.6357ZM2.28125 11.501C2.15365 11.6331 2.08757 11.7949 2.08301 11.9863C2.08301 12.1777 2.14681 12.3372 2.27441 12.4648C2.40658 12.597 2.56836 12.6631 2.75977 12.6631C2.95573 12.6676 3.11751 12.6061 3.24512 12.4785L4.16797 11.5625C4.30013 11.4303 4.36621 11.2686 4.36621 11.0771C4.37077 10.8857 4.30924 10.724 4.18164 10.5918C4.04948 10.4642 3.88542 10.4004 3.68945 10.4004C3.49805 10.3958 3.33854 10.4574 3.21094 10.585L2.28125 11.501ZM0.845703 6.64062C0.658854 6.64062 0.49707 6.70898 0.360352 6.8457C0.223633 6.98242 0.155273 7.14421 0.155273 7.33105C0.155273 7.51335 0.223633 7.67285 0.360352 7.80957C0.49707 7.94629 0.658854 8.01465 0.845703 8.01465H2.1377C2.32454 8.01465 2.48633 7.94629 2.62305 7.80957C2.75977 7.67285 2.82812 7.51335 2.82812 7.33105C2.82812 7.14421 2.75977 6.98242 2.62305 6.8457C2.48633 6.70898 2.32454 6.64062 2.1377 6.64062H0.845703ZM3.2041 4.07715C3.33171 4.20475 3.49121 4.27083 3.68262 4.27539C3.87858 4.27539 4.04036 4.21159 4.16797 4.08398C4.30013 3.95182 4.36621 3.79004 4.36621 3.59863C4.37077 3.40267 4.30924 3.24089 4.18164 3.11328L3.25879 2.18359C3.13118 2.05599 2.9694 1.99219 2.77344 1.99219C2.58203 1.98763 2.42253 2.04915 2.29492 2.17676C2.16276 2.30892 2.09668 2.47298 2.09668 2.66895C2.09668 2.86035 2.1582 3.01986 2.28125 3.14746L3.2041 4.07715Z" fill="white"/>
</svg>
