<svg width="24" height="25" viewBox="0 0 24 25" fill="none" xmlns="http://www.w3.org/2000/svg">
<path d="M3.65885 24.9878H20.3539C22.7846 24.9878 24 23.6637 24 21.0575V4.93204C24 2.32577 22.7846 0.987793 20.3539 0.987793H3.65885C1.22815 0.987793 0 2.31183 0 4.93204V21.0575C0 23.6637 1.22815 24.9878 3.65885 24.9878ZM3.51812 23.1759C2.32836 23.1759 1.67591 22.4791 1.67591 21.1411V8.94598C1.67591 7.608 2.32836 6.91114 3.51812 6.91114H20.4691C21.6588 6.91114 22.3369 7.608 22.3369 8.94598V21.1411C22.3369 22.4791 21.6588 23.1759 20.4691 23.1759H3.51812ZM5.51386 11.7334H18.5117C18.8955 11.7334 19.177 11.4129 19.177 11.0087C19.177 10.6185 18.8955 10.3118 18.5117 10.3118H5.51386C5.13006 10.3118 4.84861 10.6185 4.84861 11.0087C4.84861 11.4129 5.13006 11.7334 5.51386 11.7334ZM5.51386 15.7613H18.5117C18.8955 15.7613 19.177 15.4408 19.177 15.0505C19.177 14.6463 18.8955 14.3258 18.5117 14.3258H5.51386C5.13006 14.3258 4.84861 14.6463 4.84861 15.0505C4.84861 15.4408 5.13006 15.7613 5.51386 15.7613ZM5.51386 19.7752H13.8806C14.2644 19.7752 14.5458 19.4686 14.5458 19.0784C14.5458 18.6742 14.2644 18.3536 13.8806 18.3536H5.51386C5.13006 18.3536 4.84861 18.6742 4.84861 19.0784C4.84861 19.4686 5.13006 19.7752 5.51386 19.7752Z" fill="#F3A952"/>
</svg>
