<svg fill="none" height="21" viewBox="0 0 21 21" width="21" xmlns="http://www.w3.org/2000/svg"><path clip-rule="evenodd" d="m10.5 0c.9156 0 1.6579.742265 1.6579 1.65789v7.18421h7.1842c.9156 0 1.6579.74227 1.6579 1.6579 0 .9156-.7423 1.6579-1.6579 1.6579h-7.1842v7.1842c0 .9156-.7423 1.6579-1.6579 1.6579-.91563 0-1.6579-.7423-1.6579-1.6579v-7.1842h-7.18421c-.915625 0-1.65789-.7423-1.65789-1.6579 0-.91563.742265-1.6579 1.65789-1.6579h7.18421v-7.18421c0-.915625.74227-1.65789 1.6579-1.65789z" fill="#24242f" fill-rule="evenodd"/></svg>