<svg fill="none" height="20" viewBox="0 0 19 20" width="19" xmlns="http://www.w3.org/2000/svg"><g fill="#fff"><path d="m9.31616 9.23072c-.91283 0-1.80516-.27069-2.56415-.77783s-1.35055-1.22796-1.69988-2.07131c-.34932-.84335-.44072-1.77134-.26264-2.66663.17809-.89529.61766-1.71767 1.26312-2.36314.64547-.64547 1.46785-1.085041 2.36314-1.2631251.89529-.1780846 1.82325-.08668513 2.66665.2626401.8433.349326 1.5642.940885 2.0713 1.699875.5071.759.7778 1.65133.7778 2.56416 0 1.22407-.4862 2.398-1.3518 3.26355-.8655.86555-2.0395 1.35181-3.26354 1.35181zm0-7.69227c-.60855 0-1.20344.18046-1.70943.51856-.506.33809-.90037.81864-1.13326 1.38087-.23288.56223-.29381 1.18089-.17509 1.77775s.41177 1.14512.84208 1.57543c.43032.43031.97857.72336 1.57543.84208.59686.11873 1.21552.05779 1.77771-.17509.5623-.23288 1.0428-.62726 1.3809-1.13325.3381-.506.5186-1.10089.5186-1.70944 0-.81605-.3242-1.59867-.9012-2.1757-.5771-.57703-1.3597-.90121-2.17574-.90121z"/><path d="m9.31533 20.0001c-1.70581-.0012-3.39014-.3805-4.93174-1.1107-1.5416-.7303-2.90211-1.7932-3.983593-3.1124l-.399997-.4923.399997-.4846c1.082393-1.3174 2.443303-2.3786 3.984863-3.1072 1.54155-.7286 3.22541-1.1065 4.93047-1.1065 1.70507 0 3.38897.3779 4.93047 1.1065 1.5416.7286 2.9025 1.7898 3.9849 3.1072l.4.4846-.4.4923c-1.0815 1.3192-2.442 2.3821-3.9836 3.1124-1.5416.7302-3.226 1.1095-4.93177 1.1107zm-7.29996-4.7077c.93556 1.0016 2.06702 1.8001 3.32411 2.3461 1.2571.5459 2.61301.8277 3.98354.8277 1.37058 0 2.72648-.2818 3.98358-.8277 1.2571-.546 2.3885-1.3445 3.3241-2.3461-.9356-1.0015-2.067-1.8001-3.3241-2.346-1.2571-.546-2.613-.8277-3.98358-.8277-1.37053 0-2.72644.2817-3.98354.8277-1.25709.5459-2.38855 1.3445-3.32411 2.346z"/><path d="m.993042 15.2921s7.746108 8.6538 15.630658.8616l1.0154-.8616s-6.5846-6.8307-13.26915-2.7307z"/><path d="m9.31586 8.46179c2.12414 0 3.84614-1.72197 3.84614-3.84613s-1.722-3.846129-3.84614-3.846129c-2.12416 0-3.84613 1.721969-3.84613 3.846129s1.72197 3.84613 3.84613 3.84613z"/></g></svg>