<svg xmlns="http://www.w3.org/2000/svg" viewBox="0 0 100 100" width="100" height="100" preserveAspectRatio="xMidYMid meet" style="width: 100%; height: 100%; transform: translate3d(0px, 0px, 0px); content-visibility: visible;"><defs><clipPath id="__lottie_element_36"><rect width="100" height="100" x="0" y="0"></rect></clipPath></defs><g clip-path="url(#__lottie_element_36)"><g transform="matrix(1,0,0,1,33.75,42)" opacity="1" style="display: block;"><g opacity="1" transform="matrix(1,0,0,1,16.893999099731445,8.536999702453613)"><path fill="rgb(245,175,111)" fill-opacity="1" d=" M0.6179999709129333,8.28600025177002 C0.6179999709129333,8.28600025177002 -0.6179999709129333,8.28600025177002 -0.6179999709129333,8.28600025177002 C-4.830999851226807,8.28600025177002 -8.246999740600586,4.872000217437744 -8.246999740600586,0.6579999923706055 C-8.246999740600586,0.6579999923706055 -8.246999740600586,-0.6579999923706055 -8.246999740600586,-0.6579999923706055 C-8.246999740600586,-4.870999813079834 -4.830999851226807,-8.28600025177002 -0.6179999709129333,-8.28600025177002 C-0.6179999709129333,-8.28600025177002 0.6179999709129333,-8.28600025177002 0.6179999709129333,-8.28600025177002 C4.830999851226807,-8.28600025177002 8.246999740600586,-4.870999813079834 8.246999740600586,-0.6579999923706055 C8.246999740600586,-0.6579999923706055 8.246999740600586,0.6579999923706055 8.246999740600586,0.6579999923706055 C8.246999740600586,4.872000217437744 4.830999851226807,8.28600025177002 0.6179999709129333,8.28600025177002z"></path></g></g><g transform="matrix(1,0,0,1,33.75,42)" opacity="1" style="display: block;"><g opacity="1" transform="matrix(1,0,0,1,11.303999900817871,14.166000366210938)"><path stroke-linecap="butt" stroke-linejoin="miter" fill-opacity="0" stroke-miterlimit="10" stroke="rgb(245,175,111)" stroke-opacity="1" stroke-width="2" d=" M0.31200000643730164,6.303999900817871 C0.31200000643730164,6.303999900817871 -0.3109999895095825,6.303999900817871 -0.3109999895095825,6.303999900817871 C-3.621000051498413,6.303999900817871 -6.304999828338623,3.621999979019165 -6.304999828338623,0.31200000643730164 C-6.304999828338623,0.31200000643730164 -6.304999828338623,-0.31200000643730164 -6.304999828338623,-0.31200000643730164 C-6.304999828338623,-3.621999979019165 -3.621000051498413,-6.303999900817871 -0.3109999895095825,-6.303999900817871 C-0.3109999895095825,-6.303999900817871 0.31200000643730164,-6.303999900817871 0.31200000643730164,-6.303999900817871 C3.621999979019165,-6.303999900817871 6.304999828338623,-3.621999979019165 6.304999828338623,-0.31200000643730164 C6.304999828338623,-0.31200000643730164 6.304999828338623,0.31200000643730164 6.304999828338623,0.31200000643730164 C6.304999828338623,3.621999979019165 3.621999979019165,6.303999900817871 0.31200000643730164,6.303999900817871z"></path></g></g></g></svg>