<svg xmlns="http://www.w3.org/2000/svg" fill="none" height="21" viewBox="0 -6 21 21" width="21" class="injected-svg" data-src="/static/media/volume_low.b33e70b7.svg" xmlns:xlink="http://www.w3.org/1999/xlink"><g fill="#f3a952"><path d="m6.66233 1.66753c-.13273.14653-.31371.229-.50255.229h-.6728c-.84724 0-1.68846.15532-2.48852.45947-1.52847.58107-2.640776 2.03112-2.895599 3.77485l-.0068505.04687c-.1280141.87599-.1280139 1.76857.0000003 2.64456l.0068502.04687c.254823 1.74375 1.367129 3.19375 2.895599 3.77485.80006.3041 1.64128.4595 2.48852.4595h.6728c.18884 0 .36982.0824.50255.229l.4937.545c1.90227 2.1002 5.17917 1.1068 5.81537-1.7629.6723-3.0327.6723-6.1965 0-9.22917-.6362-2.8697401-3.9131-3.863145-5.81537-1.76297z"></path></g></svg>