<svg fill="none" height="24" viewBox="0 0 24 24" width="24" xmlns="http://www.w3.org/2000/svg"><circle cx="12" cy="12" fill="#fff" r="12"/><g fill="#000"><path d="m18.9285 6.4393c-.0009-.34404-.3784-.55447-.6695-.37213-3.3061 2.07147-6.7817 5.28923-8.38171 5.33173-1.34828-1.2158-2.43132-1.67115-3.30816-1.3917-.75693.2412-1.2814 1.0175-1.5588 2.3073-.07774.3616.29817.6526.62631.485.70894-.362 1.22133-.3736 1.71-.0379.94183.756.80091 3.181 2.04351 3.8294.81425.4249 1.82125.458 2.99975.1.1905.976 1.1494 1.7086 1.9847 2.2406.107.0682.2414.0881.3678.0475 1.9833-.6372 3.5624-2.3108 2.6126-4.1047-.0964-.1819-.3055-.2723-.5034-.2173-.7911.2201-1.6274.155-2.5551-.199l-.3967-.2626c4.0405-.3919 5.0388-3.661 5.0287-7.7562z"/><path d="m10.1922 10.6429c.6587-.258 1.6643-1.11045 2.2361-1.60216-.1868-1.14807-.6795-2.11914-1.3731-2.91939-.1998-.23063-.533-.11632-.6016.20618l-.81102 3.80897c.17929.1498.36242.3185.54962.5064z"/></g></svg>