<svg fill="none" height="24" viewBox="0 0 24 24" width="24" xmlns="http://www.w3.org/2000/svg"><circle cx="12" cy="12" fill="#fff" r="12"/><path d="m14.8301 10.9c.351-.1327.7187-.0699 1.1124.0232.2599.0617.5287.1256.8303.1256.4037 0 .7815-.119 1.1553-.3637.5761-.3773.9702-1.05219 1.0543-1.80531.096-.86056-.2034-1.71429-.8432-2.40323-.635-.68397-1.4828-1.06044-2.3871-1.06044-.9229 0-1.7931.38989-2.4505 1.09772-.8216.88493-1.3562 2.29584-1.3654 3.58986-.1955-.15328-.3686-.34102-.4575-.61327-.1377-.42106-.0639-.78116.0214-1.19809.1171-.57108.2625-1.28184-.221-2.13856-.4019-.71157-1.1544-1.15378-1.96399-1.15378-.6984 0-1.3886.32908-1.94356.92653-1.32417 1.42661-1.30832 3.76387.03484 5.21017.81083.8735 2.14324 1.4617 3.32951 1.476-.1418.2085-.3153.3921-.566.4872-.35039.1332-.71809.0709-1.11247-.0231-.2598-.0617-.52866-.1257-.83043-.1257-.40346 0-.78137.119-1.1551.3637-.5761.3773-.97022 1.0522-1.05434 1.8054-.09596.8605.20356 1.7143.84316 2.4032.63503.6839 1.4829 1.0603 2.38723 1.0603.92285 0 1.79315-.3899 2.45055-1.0976.8216-.885 1.3561-2.2958 1.3654-3.5898.1954.1532.3685.341.4575.6131.1376.4211.0639.7812-.0215 1.1982-.1171.571-.2625 1.2818.221 2.1385.402.7117 1.1545 1.1539 1.9641 1.1539.6984 0 1.3886-.3291 1.9436-.9265 1.3239-1.4264 1.3083-3.7636-.0349-5.2102-.8108-.8736-2.1433-1.4617-3.3294-1.476.1417-.2085.3152-.3921.5658-.4873zm-1.7754 1.6975c-.2962.319-.8132.319-1.1094 0-.3058-.3296-.3058-.8654 0-1.195.1481-.1595.3451-.2473.5547-.2473.2097 0 .4066.0878.5548.2473.3057.3296.3057.8654-.0001 1.195z" fill="#000"/></svg>