<svg fill="none" height="24" viewBox="0 0 24 24" width="24" xmlns="http://www.w3.org/2000/svg"><circle cx="12" cy="12" fill="#fff" r="12"/><path d="m17.7253 5.31261c-4.2093-1.03074-9.28018.57636-11.07709 3.51377-.93664 1.53092-.85573 3.25062.22653 4.84432.12012.2151.26341.4141.42715.5931.74494-1.8852 2.05644-3.4482 3.72551-4.44004.1682-.10615.3849-.04571.4838.13492.0989.18062.0427.41322-.1257.51942-1.66913 1.0531-2.78117 2.2979-3.46708 4.1813-.48022 1.2523-.80215 2.568-.95722 3.912-.02265.207.11249.3957.30471.4254.02317.0032.0466.0041.0699.0023.16801-.0124.30444-.1502.32619-.3293.12802-1.201.40463-2.3782.8226-3.5005.45305.2465.9356.4246 1.43395.5293.15065.0312.30055.056.44965.0743 1.3447.1862 2.702-.2217 3.7612-1.1301 1.1144-1.2801 1.2212-2.4328 1.3246-3.5476.1327-1.43526.2704-2.91953 2.4366-5.138.0941-.09644.1313-.24067.0967-.37531s-.1351-.23816-.262-.26928z" fill="#000"/></svg>